<svg width="20" height="20" viewBox="0 0 20 20" fill="none" xmlns="http://www.w3.org/2000/svg">
<g clip-path="url(#clip0_133_441)">
<path d="M2.98331 17.6633H14.8658L14.2983 15.8258L15.6558 16.9908L16.9 18.1058L19.1666 20V2.0625C19.11 0.9475 18.15 0 16.96 0L2.98748 0.0025C1.79831 0.0025 0.833313 0.951667 0.833313 2.06667V15.6C0.833313 16.7758 1.79665 17.6633 2.98331 17.6633ZM11.7733 4.73583L11.7458 4.74583L11.7558 4.73583H11.7733ZM5.41415 5.79333C6.94165 4.68167 8.35748 4.735 8.35748 4.735L8.47165 4.8475C6.60248 5.29333 5.75498 6.12833 5.75498 6.12833C5.75498 6.12833 5.98165 6.0175 6.37748 5.84833C8.89498 4.85833 11.6441 4.93 14.1891 6.18333C14.1891 6.18333 13.34 5.4025 11.5858 4.9025L11.7408 4.75C11.9833 4.75083 13.2666 4.79583 14.64 5.8C14.64 5.8 16.1766 8.425 16.1766 11.65C16.1258 11.5883 15.2233 13.0383 12.9008 13.0883C12.9008 13.0883 12.5075 12.6433 12.2275 12.255C13.5858 11.865 14.0941 11.085 14.0941 11.085C13.6483 11.3658 13.2416 11.5325 12.9116 11.6992C12.4041 11.9225 11.8958 12.0325 11.3883 12.145C8.98498 12.535 7.63581 11.8825 6.36081 11.365L5.92498 11.1433C5.92498 11.1433 6.43248 11.9233 7.73665 12.3133C7.39415 12.7042 7.05498 13.1483 7.05498 13.1483C4.73331 13.0933 3.88665 11.6433 3.88665 11.6433C3.88665 8.41333 5.41415 5.79333 5.41415 5.79333Z" fill="#111111"/>
<path d="M11.9214 10.644C12.5139 10.644 12.9964 10.144 12.9964 9.52729C12.9964 8.91479 12.5164 8.41479 11.9214 8.41479V8.4173C11.3314 8.4173 10.848 8.91563 10.8464 9.5323C10.8464 10.144 11.3289 10.644 11.9214 10.644Z" fill="#111111"/>
<path d="M8.07372 10.644C8.66622 10.644 9.14872 10.144 9.14872 9.52729C9.14872 8.91479 8.66955 8.41479 8.07705 8.41479L8.07372 8.4173C7.48122 8.4173 6.99872 8.91563 6.99872 9.5323C6.99872 10.144 7.48122 10.644 8.07372 10.644Z" fill="#111111"/>
</g>
<defs>
<clipPath id="clip0_133_441">
<rect width="20" height="20" fill="white"/>
</clipPath>
</defs>
</svg>
